<svg viewBox="0 0 512 512" xml:space="preserve" xmlns="http://www.w3.org/2000/svg" enable-background="new 0 0 512 512"><path d="M364.834 141.156h75.593l-75.593-75.594v75.594zm-7.621-81.014H114.945v383.755h330.872v-295.15h-84.795a3.808 3.808 0 0 1-3.81-3.811V60.142zM94.715 43.475v383.754h12.609V56.238l.032-.093v-.187l.062-.371c.372-1.735 1.89-3.036 3.718-3.036H348.29l-9.077-9.047c-81.51.001-162.988-.029-244.498-.029zm-7.59 366.281V39.291l.062-.371a3.825 3.825 0 0 1 3.75-3.036l229.626.03-9.915-9.883-244.466-.03v383.754h20.943zm85.258-255.341c-1.642-1.642-3.934-2.664-6.443-2.664s-4.803 1.022-6.445 2.634a9.24 9.24 0 0 0-2.664 6.475c0 2.416.96 4.647 2.509 6.289l.155.155c1.642 1.642 3.936 2.663 6.445 2.663s4.801-1.021 6.443-2.663c1.643-1.643 2.664-3.935 2.664-6.444s-1.021-4.803-2.664-6.445zm-6.443-10.286c4.615 0 8.798 1.891 11.803 4.896 3.037 3.036 4.925 7.219 4.925 11.835 0 4.615-1.888 8.799-4.894 11.835-3.036 3.005-7.219 4.895-11.834 4.895-4.617 0-8.798-1.89-11.835-4.895l-.248-.312c-2.85-3.004-4.646-7.063-4.646-11.523 0-4.616 1.89-8.799 4.894-11.804 3.066-3.036 7.25-4.927 11.835-4.927zm29.122 13.385a3.81 3.81 0 0 1-3.812-3.811 3.808 3.808 0 0 1 3.812-3.811h85.041a3.807 3.807 0 0 1 3.811 3.811 3.809 3.809 0 0 1-3.811 3.811h-85.041zm0 12.485a3.81 3.81 0 0 1-3.812-3.812c0-2.075 1.704-3.811 3.812-3.811h145.73c2.107 0 3.812 1.735 3.812 3.811a3.81 3.81 0 0 1-3.812 3.812h-145.73zm-22.679 37.052c-1.642-1.643-3.934-2.664-6.443-2.664s-4.803 1.021-6.445 2.664a9.116 9.116 0 0 0-2.664 6.443c0 2.418.96 4.648 2.509 6.289l.155.156c1.642 1.641 3.936 2.664 6.445 2.664s4.801-1.023 6.443-2.664a9.11 9.11 0 0 0 2.664-6.445 9.104 9.104 0 0 0-2.664-6.443zm-6.443-10.285c4.615 0 8.798 1.891 11.803 4.895 3.037 3.036 4.925 7.219 4.925 11.834 0 4.617-1.888 8.799-4.894 11.836-3.036 3.004-7.219 4.895-11.834 4.895-4.617 0-8.798-1.891-11.835-4.895l-.248-.311c-2.85-2.975-4.646-7.063-4.646-11.525 0-4.615 1.89-8.798 4.894-11.803 3.066-3.036 7.25-4.926 11.835-4.926zm29.122 13.383c-2.107 0-3.812-1.704-3.812-3.811s1.704-3.812 3.812-3.812h85.041c2.107 0 3.811 1.705 3.811 3.812s-1.703 3.811-3.811 3.811h-85.041zm0 12.486a3.809 3.809 0 0 1-3.812-3.811c0-2.076 1.704-3.78 3.812-3.78h145.73c2.107 0 3.812 1.704 3.812 3.78a3.809 3.809 0 0 1-3.812 3.811h-145.73zm-22.679 37.052c-1.642-1.642-3.934-2.665-6.443-2.665s-4.803 1.023-6.445 2.665a9.115 9.115 0 0 0-2.664 6.444c0 2.447.96 4.646 2.509 6.289l.155.154c1.642 1.643 3.936 2.665 6.445 2.665s4.801-1.022 6.443-2.665c1.643-1.641 2.664-3.934 2.664-6.443s-1.021-4.803-2.664-6.444zm-6.443-10.286c4.615 0 8.798 1.89 11.803 4.895 3.037 3.036 4.925 7.218 4.925 11.835 0 4.616-1.888 8.799-4.894 11.834-3.036 3.006-7.219 4.895-11.834 4.895-4.617 0-8.798-1.889-11.835-4.895l-.248-.279c-2.85-3.004-4.646-7.094-4.646-11.555 0-4.585 1.89-8.768 4.894-11.805 3.066-3.035 7.25-4.925 11.835-4.925zm29.122 13.384a3.809 3.809 0 0 1-3.812-3.811 3.808 3.808 0 0 1 3.812-3.811h85.041a3.807 3.807 0 0 1 3.811 3.811 3.808 3.808 0 0 1-3.811 3.811h-85.041zm0 12.485c-2.107 0-3.812-1.703-3.812-3.779a3.808 3.808 0 0 1 3.812-3.811h145.73a3.808 3.808 0 0 1 3.812 3.811c0 2.076-1.704 3.779-3.812 3.779h-145.73zm-22.679 37.052c-1.642-1.642-3.934-2.664-6.443-2.664s-4.803 1.022-6.445 2.664a9.119 9.119 0 0 0-2.664 6.444c0 2.446.96 4.646 2.509 6.289l.155.154c1.642 1.643 3.936 2.665 6.445 2.665s4.801-1.022 6.443-2.665c1.643-1.642 2.664-3.935 2.664-6.443s-1.021-4.801-2.664-6.444zm-6.443-10.285c4.615 0 8.798 1.89 11.803 4.895 3.037 3.037 4.925 7.219 4.925 11.835s-1.888 8.798-4.894 11.834c-3.036 3.006-7.219 4.896-11.834 4.896-4.617 0-8.798-1.89-11.835-4.896l-.248-.278c-2.85-3.005-4.646-7.094-4.646-11.556 0-4.585 1.89-8.768 4.894-11.804 3.066-3.036 7.25-4.926 11.835-4.926zm29.122 13.383a3.808 3.808 0 0 1-3.812-3.811c0-2.075 1.704-3.811 3.812-3.811h85.041c2.107 0 3.811 1.735 3.811 3.811a3.807 3.807 0 0 1-3.811 3.811h-85.041zm0 12.518c-2.107 0-3.812-1.736-3.812-3.811a3.81 3.81 0 0 1 3.812-3.813h145.73a3.81 3.81 0 0 1 3.812 3.813c0 2.074-1.704 3.811-3.812 3.811h-145.73zm-22.679 37.021c-1.642-1.643-3.934-2.665-6.443-2.665s-4.803 1.022-6.445 2.665a9.11 9.11 0 0 0-2.664 6.443c0 2.447.96 4.646 2.509 6.289l.155.154c1.642 1.643 3.936 2.664 6.445 2.664s4.801-1.021 6.443-2.664a9.106 9.106 0 0 0 2.664-6.443 9.102 9.102 0 0 0-2.664-6.443zm-6.443-10.286a16.67 16.67 0 0 1 11.803 4.896c3.037 3.035 4.925 7.218 4.925 11.834 0 4.615-1.888 8.798-4.894 11.834a16.672 16.672 0 0 1-11.834 4.896 16.668 16.668 0 0 1-11.835-4.896l-.248-.278c-2.85-3.005-4.646-7.095-4.646-11.556 0-4.586 1.89-8.768 4.894-11.804 3.066-3.036 7.25-4.926 11.835-4.926zm29.122 13.384a3.81 3.81 0 0 1-3.812-3.812c0-2.075 1.704-3.811 3.812-3.811h85.041c2.107 0 3.811 1.735 3.811 3.811a3.808 3.808 0 0 1-3.811 3.812h-85.041zm0 12.515c-2.107 0-3.812-1.734-3.812-3.811a3.809 3.809 0 0 1 3.812-3.811h145.73a3.809 3.809 0 0 1 3.812 3.811c0 2.076-1.704 3.811-3.812 3.811h-145.73zm224.608 25.9h-81.635v18.558h81.635v-18.558zM81.424 470.137c-2.106 0-3.81-1.704-3.81-3.811s1.704-3.811 3.81-3.811h260.732c2.107 0 3.811 1.704 3.811 3.811s-1.703 3.811-3.811 3.811H81.424zm152.672 15.862c-2.105 0-3.811-1.704-3.811-3.811s1.706-3.811 3.811-3.811h180.43c2.106 0 3.81 1.704 3.81 3.811s-1.703 3.811-3.81 3.811h-180.43zm-162.956-.496c-2.076 0-3.811-1.704-3.811-3.811 0-2.076 1.735-3.811 3.811-3.811h85.505c2.107 0 3.812 1.734 3.812 3.811a3.809 3.809 0 0 1-3.812 3.811H71.14zm263.087-86.652h89.222a3.809 3.809 0 0 1 3.812 3.811v26.179c0 2.075-1.704 3.779-3.812 3.779h-89.222a3.795 3.795 0 0 1-3.78-3.779v-26.179c-.001-2.107 1.703-3.811 3.78-3.811z" fill-rule="evenodd" clip-rule="evenodd" fill="#ffffff" class="fill-000000"></path></svg>